<mxfile host="app.diagrams.net" modified="2023-06-06T16:59:36.112Z" agent="Mozilla/5.0 (Windows NT 10.0; Win64; x64; rv:109.0) Gecko/20100101 Firefox/113.0" etag="pycFSVV1yi9LrxZcAVGt" version="21.3.7" type="device">
  <diagram name="Página-1" id="G2sHckhDshwTCdSsd0GY">
    <mxGraphModel dx="1434" dy="754" grid="1" gridSize="10" guides="1" tooltips="1" connect="1" arrows="1" fold="1" page="1" pageScale="1" pageWidth="850" pageHeight="1100" math="0" shadow="0">
      <root>
        <mxCell id="0" />
        <mxCell id="1" parent="0" />
        <mxCell id="doydhVigzj5oIE7qaJQT-3" value="" style="edgeStyle=orthogonalEdgeStyle;rounded=0;orthogonalLoop=1;jettySize=auto;html=1;labelBackgroundColor=none;strokeColor=#E07A5F;fontColor=default;" edge="1" parent="1" source="doydhVigzj5oIE7qaJQT-1" target="doydhVigzj5oIE7qaJQT-2">
          <mxGeometry relative="1" as="geometry" />
        </mxCell>
        <mxCell id="doydhVigzj5oIE7qaJQT-1" value="inicio" style="ellipse;whiteSpace=wrap;html=1;labelBackgroundColor=none;fillColor=#F2CC8F;strokeColor=#E07A5F;fontColor=#393C56;" vertex="1" parent="1">
          <mxGeometry x="380" y="20" width="120" height="80" as="geometry" />
        </mxCell>
        <mxCell id="doydhVigzj5oIE7qaJQT-13" value="" style="edgeStyle=orthogonalEdgeStyle;rounded=0;orthogonalLoop=1;jettySize=auto;html=1;labelBackgroundColor=none;strokeColor=#E07A5F;fontColor=default;" edge="1" parent="1" source="doydhVigzj5oIE7qaJQT-2" target="doydhVigzj5oIE7qaJQT-12">
          <mxGeometry relative="1" as="geometry" />
        </mxCell>
        <mxCell id="doydhVigzj5oIE7qaJQT-2" value="cal (int)" style="rounded=0;whiteSpace=wrap;html=1;labelBackgroundColor=none;fillColor=#F2CC8F;strokeColor=#E07A5F;fontColor=#393C56;" vertex="1" parent="1">
          <mxGeometry x="380" y="141" width="120" height="60" as="geometry" />
        </mxCell>
        <mxCell id="doydhVigzj5oIE7qaJQT-8" style="edgeStyle=orthogonalEdgeStyle;rounded=0;orthogonalLoop=1;jettySize=auto;html=1;labelBackgroundColor=none;strokeColor=#E07A5F;fontColor=default;" edge="1" parent="1" source="doydhVigzj5oIE7qaJQT-4" target="doydhVigzj5oIE7qaJQT-15">
          <mxGeometry relative="1" as="geometry">
            <mxPoint x="709" y="634.04" as="targetPoint" />
          </mxGeometry>
        </mxCell>
        <mxCell id="doydhVigzj5oIE7qaJQT-11" value="SI" style="edgeLabel;html=1;align=center;verticalAlign=middle;resizable=0;points=[];labelBackgroundColor=none;fontColor=#393C56;" vertex="1" connectable="0" parent="doydhVigzj5oIE7qaJQT-8">
          <mxGeometry x="-0.4795" y="-2" relative="1" as="geometry">
            <mxPoint as="offset" />
          </mxGeometry>
        </mxCell>
        <mxCell id="doydhVigzj5oIE7qaJQT-9" style="edgeStyle=orthogonalEdgeStyle;rounded=0;orthogonalLoop=1;jettySize=auto;html=1;entryX=0.5;entryY=0;entryDx=0;entryDy=0;labelBackgroundColor=none;strokeColor=#E07A5F;fontColor=default;" edge="1" parent="1" source="doydhVigzj5oIE7qaJQT-4" target="doydhVigzj5oIE7qaJQT-7">
          <mxGeometry relative="1" as="geometry">
            <mxPoint x="150" y="511" as="targetPoint" />
          </mxGeometry>
        </mxCell>
        <mxCell id="doydhVigzj5oIE7qaJQT-10" value="NO" style="edgeLabel;html=1;align=center;verticalAlign=middle;resizable=0;points=[];labelBackgroundColor=none;fontColor=#393C56;" vertex="1" connectable="0" parent="doydhVigzj5oIE7qaJQT-9">
          <mxGeometry x="-0.1199" y="-2" relative="1" as="geometry">
            <mxPoint as="offset" />
          </mxGeometry>
        </mxCell>
        <mxCell id="doydhVigzj5oIE7qaJQT-4" value="&lt;div&gt;cal &amp;lt;1 y&lt;br&gt;&lt;/div&gt;&lt;div&gt;cal &amp;gt;7&lt;br&gt;&lt;/div&gt;" style="rhombus;whiteSpace=wrap;html=1;rounded=0;labelBackgroundColor=none;fillColor=#F2CC8F;strokeColor=#E07A5F;fontColor=#393C56;" vertex="1" parent="1">
          <mxGeometry x="400" y="521" width="80" height="80" as="geometry" />
        </mxCell>
        <mxCell id="doydhVigzj5oIE7qaJQT-43" style="edgeStyle=orthogonalEdgeStyle;rounded=0;orthogonalLoop=1;jettySize=auto;html=1;entryX=0;entryY=0.625;entryDx=0;entryDy=0;entryPerimeter=0;labelBackgroundColor=none;strokeColor=#E07A5F;fontColor=default;" edge="1" parent="1" source="doydhVigzj5oIE7qaJQT-7" target="doydhVigzj5oIE7qaJQT-42">
          <mxGeometry relative="1" as="geometry">
            <mxPoint x="370" y="1270" as="targetPoint" />
            <Array as="points">
              <mxPoint x="230" y="1260" />
            </Array>
          </mxGeometry>
        </mxCell>
        <mxCell id="doydhVigzj5oIE7qaJQT-7" value="&quot; NO ESTA DENTRO DEL RANGO &quot;" style="shape=document;whiteSpace=wrap;html=1;boundedLbl=1;labelBackgroundColor=none;fillColor=#F2CC8F;strokeColor=#E07A5F;fontColor=#393C56;" vertex="1" parent="1">
          <mxGeometry x="170" y="641" width="120" height="80" as="geometry" />
        </mxCell>
        <mxCell id="doydhVigzj5oIE7qaJQT-26" value="" style="edgeStyle=orthogonalEdgeStyle;rounded=0;orthogonalLoop=1;jettySize=auto;html=1;exitX=0.507;exitY=0.825;exitDx=0;exitDy=0;exitPerimeter=0;labelBackgroundColor=none;strokeColor=#E07A5F;fontColor=default;" edge="1" parent="1" source="doydhVigzj5oIE7qaJQT-12" target="doydhVigzj5oIE7qaJQT-25">
          <mxGeometry relative="1" as="geometry" />
        </mxCell>
        <mxCell id="doydhVigzj5oIE7qaJQT-12" value="&quot; INGRESA LA CALIFICACIÓN &quot;" style="shape=document;whiteSpace=wrap;html=1;boundedLbl=1;labelBackgroundColor=none;fillColor=#F2CC8F;strokeColor=#E07A5F;fontColor=#393C56;" vertex="1" parent="1">
          <mxGeometry x="370" y="270" width="140" height="80" as="geometry" />
        </mxCell>
        <mxCell id="doydhVigzj5oIE7qaJQT-19" value="" style="edgeStyle=orthogonalEdgeStyle;rounded=0;orthogonalLoop=1;jettySize=auto;html=1;labelBackgroundColor=none;strokeColor=#E07A5F;fontColor=default;" edge="1" parent="1" source="doydhVigzj5oIE7qaJQT-15" target="doydhVigzj5oIE7qaJQT-18">
          <mxGeometry relative="1" as="geometry" />
        </mxCell>
        <mxCell id="doydhVigzj5oIE7qaJQT-23" value="NO" style="edgeLabel;html=1;align=center;verticalAlign=middle;resizable=0;points=[];labelBackgroundColor=none;fontColor=#393C56;" vertex="1" connectable="0" parent="doydhVigzj5oIE7qaJQT-19">
          <mxGeometry x="-0.1286" y="3" relative="1" as="geometry">
            <mxPoint as="offset" />
          </mxGeometry>
        </mxCell>
        <mxCell id="doydhVigzj5oIE7qaJQT-22" value="" style="edgeStyle=orthogonalEdgeStyle;rounded=0;orthogonalLoop=1;jettySize=auto;html=1;labelBackgroundColor=none;strokeColor=#E07A5F;fontColor=default;" edge="1" parent="1" source="doydhVigzj5oIE7qaJQT-15" target="doydhVigzj5oIE7qaJQT-21">
          <mxGeometry relative="1" as="geometry" />
        </mxCell>
        <mxCell id="doydhVigzj5oIE7qaJQT-24" value="SI" style="edgeLabel;html=1;align=center;verticalAlign=middle;resizable=0;points=[];labelBackgroundColor=none;fontColor=#393C56;" vertex="1" connectable="0" parent="doydhVigzj5oIE7qaJQT-22">
          <mxGeometry x="-0.44" y="-2" relative="1" as="geometry">
            <mxPoint as="offset" />
          </mxGeometry>
        </mxCell>
        <mxCell id="doydhVigzj5oIE7qaJQT-15" value="cal =&amp;gt;4" style="rhombus;whiteSpace=wrap;html=1;labelBackgroundColor=none;fillColor=#F2CC8F;strokeColor=#E07A5F;fontColor=#393C56;" vertex="1" parent="1">
          <mxGeometry x="660" y="791" width="80" height="80" as="geometry" />
        </mxCell>
        <mxCell id="doydhVigzj5oIE7qaJQT-45" style="edgeStyle=orthogonalEdgeStyle;rounded=0;orthogonalLoop=1;jettySize=auto;html=1;labelBackgroundColor=none;strokeColor=#E07A5F;fontColor=default;" edge="1" parent="1" source="doydhVigzj5oIE7qaJQT-18" target="doydhVigzj5oIE7qaJQT-42">
          <mxGeometry relative="1" as="geometry">
            <Array as="points">
              <mxPoint x="470" y="1160" />
              <mxPoint x="640" y="1160" />
            </Array>
          </mxGeometry>
        </mxCell>
        <mxCell id="doydhVigzj5oIE7qaJQT-18" value="&quot; REPROBADO &quot;" style="shape=document;whiteSpace=wrap;html=1;boundedLbl=1;labelBackgroundColor=none;fillColor=#F2CC8F;strokeColor=#E07A5F;fontColor=#393C56;" vertex="1" parent="1">
          <mxGeometry x="410" y="921" width="120" height="80" as="geometry" />
        </mxCell>
        <mxCell id="doydhVigzj5oIE7qaJQT-46" style="edgeStyle=orthogonalEdgeStyle;rounded=0;orthogonalLoop=1;jettySize=auto;html=1;entryX=1;entryY=0.5;entryDx=0;entryDy=0;labelBackgroundColor=none;strokeColor=#E07A5F;fontColor=default;" edge="1" parent="1" source="doydhVigzj5oIE7qaJQT-21" target="doydhVigzj5oIE7qaJQT-42">
          <mxGeometry relative="1" as="geometry">
            <Array as="points">
              <mxPoint x="930" y="1290" />
            </Array>
          </mxGeometry>
        </mxCell>
        <mxCell id="doydhVigzj5oIE7qaJQT-21" value="&quot; APROBADO &quot;" style="shape=document;whiteSpace=wrap;html=1;boundedLbl=1;labelBackgroundColor=none;fillColor=#F2CC8F;strokeColor=#E07A5F;fontColor=#393C56;" vertex="1" parent="1">
          <mxGeometry x="870" y="921" width="120" height="80" as="geometry" />
        </mxCell>
        <mxCell id="doydhVigzj5oIE7qaJQT-27" value="" style="edgeStyle=orthogonalEdgeStyle;rounded=0;orthogonalLoop=1;jettySize=auto;html=1;labelBackgroundColor=none;strokeColor=#E07A5F;fontColor=default;" edge="1" parent="1" source="doydhVigzj5oIE7qaJQT-25" target="doydhVigzj5oIE7qaJQT-4">
          <mxGeometry relative="1" as="geometry" />
        </mxCell>
        <mxCell id="doydhVigzj5oIE7qaJQT-25" value="cal" style="shape=parallelogram;perimeter=parallelogramPerimeter;whiteSpace=wrap;html=1;fixedSize=1;labelBackgroundColor=none;fillColor=#F2CC8F;strokeColor=#E07A5F;fontColor=#393C56;" vertex="1" parent="1">
          <mxGeometry x="380" y="400" width="120" height="60" as="geometry" />
        </mxCell>
        <mxCell id="doydhVigzj5oIE7qaJQT-35" value="" style="edgeStyle=orthogonalEdgeStyle;rounded=0;orthogonalLoop=1;jettySize=auto;html=1;labelBackgroundColor=none;strokeColor=#E07A5F;fontColor=default;" edge="1" parent="1" target="doydhVigzj5oIE7qaJQT-38">
          <mxGeometry relative="1" as="geometry">
            <mxPoint x="1676" y="90" as="sourcePoint" />
          </mxGeometry>
        </mxCell>
        <mxCell id="doydhVigzj5oIE7qaJQT-36" value="inicio" style="ellipse;whiteSpace=wrap;html=1;labelBackgroundColor=none;fillColor=#F2CC8F;strokeColor=#E07A5F;fontColor=#393C56;" vertex="1" parent="1">
          <mxGeometry x="1614" y="10" width="120" height="80" as="geometry" />
        </mxCell>
        <mxCell id="doydhVigzj5oIE7qaJQT-38" value="prom, suma,edad, i (int)" style="rounded=0;whiteSpace=wrap;html=1;labelBackgroundColor=none;fillColor=#F2CC8F;strokeColor=#E07A5F;fontColor=#393C56;" vertex="1" parent="1">
          <mxGeometry x="1615" y="141" width="120" height="60" as="geometry" />
        </mxCell>
        <mxCell id="doydhVigzj5oIE7qaJQT-39" value="" style="edgeStyle=orthogonalEdgeStyle;rounded=0;orthogonalLoop=1;jettySize=auto;html=1;labelBackgroundColor=none;strokeColor=#E07A5F;fontColor=default;" edge="1" parent="1" source="doydhVigzj5oIE7qaJQT-40" target="doydhVigzj5oIE7qaJQT-41">
          <mxGeometry relative="1" as="geometry" />
        </mxCell>
        <mxCell id="doydhVigzj5oIE7qaJQT-40" value="&quot; INGRESA EDAD &quot;" style="shape=document;whiteSpace=wrap;html=1;boundedLbl=1;labelBackgroundColor=none;fillColor=#F2CC8F;strokeColor=#E07A5F;fontColor=#393C56;" vertex="1" parent="1">
          <mxGeometry x="1910" y="641" width="120" height="80" as="geometry" />
        </mxCell>
        <mxCell id="doydhVigzj5oIE7qaJQT-58" value="" style="edgeStyle=orthogonalEdgeStyle;rounded=0;orthogonalLoop=1;jettySize=auto;html=1;labelBackgroundColor=none;strokeColor=#E07A5F;fontColor=default;" edge="1" parent="1" source="doydhVigzj5oIE7qaJQT-41" target="doydhVigzj5oIE7qaJQT-51">
          <mxGeometry relative="1" as="geometry" />
        </mxCell>
        <mxCell id="doydhVigzj5oIE7qaJQT-41" value="edad" style="shape=parallelogram;perimeter=parallelogramPerimeter;whiteSpace=wrap;html=1;fixedSize=1;labelBackgroundColor=none;fillColor=#F2CC8F;strokeColor=#E07A5F;fontColor=#393C56;" vertex="1" parent="1">
          <mxGeometry x="1910" y="761" width="120" height="60" as="geometry" />
        </mxCell>
        <mxCell id="doydhVigzj5oIE7qaJQT-42" value="fin" style="ellipse;whiteSpace=wrap;html=1;labelBackgroundColor=none;fillColor=#F2CC8F;strokeColor=#E07A5F;fontColor=#393C56;" vertex="1" parent="1">
          <mxGeometry x="580" y="1250" width="120" height="80" as="geometry" />
        </mxCell>
        <mxCell id="doydhVigzj5oIE7qaJQT-47" value="&quot; CUANTAS PERSONAS PARTICIPAN &quot;" style="shape=document;whiteSpace=wrap;html=1;boundedLbl=1;labelBackgroundColor=none;fillColor=#F2CC8F;strokeColor=#E07A5F;fontColor=#393C56;" vertex="1" parent="1">
          <mxGeometry x="1630" y="260" width="120" height="80" as="geometry" />
        </mxCell>
        <mxCell id="doydhVigzj5oIE7qaJQT-48" value="i" style="shape=parallelogram;perimeter=parallelogramPerimeter;whiteSpace=wrap;html=1;fixedSize=1;labelBackgroundColor=none;fillColor=#F2CC8F;strokeColor=#E07A5F;fontColor=#393C56;" vertex="1" parent="1">
          <mxGeometry x="1640" y="370" width="120" height="60" as="geometry" />
        </mxCell>
        <mxCell id="doydhVigzj5oIE7qaJQT-55" style="edgeStyle=orthogonalEdgeStyle;rounded=0;orthogonalLoop=1;jettySize=auto;html=1;labelBackgroundColor=none;strokeColor=#E07A5F;fontColor=default;" edge="1" parent="1" source="doydhVigzj5oIE7qaJQT-49" target="doydhVigzj5oIE7qaJQT-53">
          <mxGeometry relative="1" as="geometry" />
        </mxCell>
        <mxCell id="doydhVigzj5oIE7qaJQT-57" style="edgeStyle=orthogonalEdgeStyle;rounded=0;orthogonalLoop=1;jettySize=auto;html=1;entryX=0.5;entryY=0;entryDx=0;entryDy=0;labelBackgroundColor=none;strokeColor=#E07A5F;fontColor=default;" edge="1" parent="1" source="doydhVigzj5oIE7qaJQT-49" target="doydhVigzj5oIE7qaJQT-40">
          <mxGeometry relative="1" as="geometry" />
        </mxCell>
        <mxCell id="doydhVigzj5oIE7qaJQT-49" value="i!=0" style="rhombus;whiteSpace=wrap;html=1;labelBackgroundColor=none;fillColor=#F2CC8F;strokeColor=#E07A5F;fontColor=#393C56;" vertex="1" parent="1">
          <mxGeometry x="1650" y="491" width="100" height="110" as="geometry" />
        </mxCell>
        <mxCell id="doydhVigzj5oIE7qaJQT-59" value="" style="edgeStyle=orthogonalEdgeStyle;rounded=0;orthogonalLoop=1;jettySize=auto;html=1;labelBackgroundColor=none;strokeColor=#E07A5F;fontColor=default;" edge="1" parent="1" source="doydhVigzj5oIE7qaJQT-51" target="doydhVigzj5oIE7qaJQT-52">
          <mxGeometry relative="1" as="geometry" />
        </mxCell>
        <mxCell id="doydhVigzj5oIE7qaJQT-51" value="i=1-1" style="rounded=0;whiteSpace=wrap;html=1;labelBackgroundColor=none;fillColor=#F2CC8F;strokeColor=#E07A5F;fontColor=#393C56;" vertex="1" parent="1">
          <mxGeometry x="1910" y="871" width="120" height="60" as="geometry" />
        </mxCell>
        <mxCell id="doydhVigzj5oIE7qaJQT-60" style="edgeStyle=orthogonalEdgeStyle;rounded=0;orthogonalLoop=1;jettySize=auto;html=1;labelBackgroundColor=none;strokeColor=#E07A5F;fontColor=default;" edge="1" parent="1" source="doydhVigzj5oIE7qaJQT-52">
          <mxGeometry relative="1" as="geometry">
            <mxPoint x="1700" y="470" as="targetPoint" />
            <Array as="points">
              <mxPoint x="1970" y="1120" />
              <mxPoint x="2151" y="1120" />
            </Array>
          </mxGeometry>
        </mxCell>
        <mxCell id="doydhVigzj5oIE7qaJQT-52" value="suma=suma+edad" style="rounded=0;whiteSpace=wrap;html=1;labelBackgroundColor=none;fillColor=#F2CC8F;strokeColor=#E07A5F;fontColor=#393C56;" vertex="1" parent="1">
          <mxGeometry x="1910" y="990" width="120" height="60" as="geometry" />
        </mxCell>
        <mxCell id="doydhVigzj5oIE7qaJQT-56" style="edgeStyle=orthogonalEdgeStyle;rounded=0;orthogonalLoop=1;jettySize=auto;html=1;entryX=0.5;entryY=0;entryDx=0;entryDy=0;labelBackgroundColor=none;strokeColor=#E07A5F;fontColor=default;" edge="1" parent="1" source="doydhVigzj5oIE7qaJQT-53" target="doydhVigzj5oIE7qaJQT-54">
          <mxGeometry relative="1" as="geometry" />
        </mxCell>
        <mxCell id="doydhVigzj5oIE7qaJQT-53" value="prom=suma/i" style="rounded=0;whiteSpace=wrap;html=1;labelBackgroundColor=none;fillColor=#F2CC8F;strokeColor=#E07A5F;fontColor=#393C56;" vertex="1" parent="1">
          <mxGeometry x="1310" y="701" width="120" height="60" as="geometry" />
        </mxCell>
        <mxCell id="doydhVigzj5oIE7qaJQT-63" style="edgeStyle=orthogonalEdgeStyle;rounded=0;orthogonalLoop=1;jettySize=auto;html=1;labelBackgroundColor=none;strokeColor=#E07A5F;fontColor=default;" edge="1" parent="1" source="doydhVigzj5oIE7qaJQT-54">
          <mxGeometry relative="1" as="geometry">
            <mxPoint x="1370" y="1100" as="targetPoint" />
          </mxGeometry>
        </mxCell>
        <mxCell id="doydhVigzj5oIE7qaJQT-54" value="&quot; EL PROMEDIO ES &quot;, prom" style="shape=document;whiteSpace=wrap;html=1;boundedLbl=1;labelBackgroundColor=none;fillColor=#F2CC8F;strokeColor=#E07A5F;fontColor=#393C56;" vertex="1" parent="1">
          <mxGeometry x="1310" y="841" width="120" height="80" as="geometry" />
        </mxCell>
        <mxCell id="doydhVigzj5oIE7qaJQT-62" value="fin" style="ellipse;whiteSpace=wrap;html=1;labelBackgroundColor=none;fillColor=#F2CC8F;strokeColor=#E07A5F;fontColor=#393C56;" vertex="1" parent="1">
          <mxGeometry x="1310" y="1100" width="120" height="80" as="geometry" />
        </mxCell>
      </root>
    </mxGraphModel>
  </diagram>
</mxfile>
